<svg xmlns="http://www.w3.org/2000/svg">
    <symbol id="home" viewBox="0 0 35 32">
        <path fill="#d31342"
            d="M32.64 15.4c.6-.65.54-1.65-.13-2.22L17.74.43a1.86 1.86 0 0 0-2.4.02L.52 13.85c-.66.6-.7 1.6-.08 2.23l.38.38c.61.63 1.6.7 2.22.17l1.1-.98v14.33c0 .87.73 1.59 1.62 1.59h5.78a1.6 1.6 0 0 0 1.61-1.6V19.96h7.37v10.03c-.01.87.62 1.59 1.52 1.59h6.12a1.6 1.6 0 0 0 1.61-1.6V15.86l.68.6c.38.32 1.17.06 1.77-.6l.42-.45z" />
    </symbol>
    <!-- width="32" height="32" -->
    <symbol id="dot" viewBox="0 0 35 32">
        <path fill="#d9d9d9" d="M33.05 16a16 16 0 1 1-32 0 16 16 0 0 1 32 0z" />
    </symbol>
</svg>